<svg xmlns="http://www.w3.org/2000/svg" width="34.553" height="34.553" viewBox="0 0 34.553 34.553">
  <path id="Phone_Icon" data-name="Phone Icon" d="M25.259,18.373l-5.688-2.438a1.219,1.219,0,0,0-1.422.35L15.63,19.364a18.823,18.823,0,0,1-9-9L9.71,7.847a1.216,1.216,0,0,0,.35-1.422L7.623.737a1.227,1.227,0,0,0-1.4-.706L.945,1.25A1.219,1.219,0,0,0,0,2.438,23.561,23.561,0,0,0,23.563,26a1.219,1.219,0,0,0,1.188-.945l1.219-5.281a1.234,1.234,0,0,0-.711-1.4Z" transform="translate(10.988 0) rotate(25)" fill="#ea482f"/>
</svg>
