<svg id="ALK_Logo_Blue" data-name="ALK Logo Blue" xmlns="http://www.w3.org/2000/svg" xmlns:xlink="http://www.w3.org/1999/xlink" width="194.176" height="52.359" viewBox="0 0 194.176 52.359">
  <defs>
    <clipPath id="clip-path">
      <rect id="Rectangle_8" data-name="Rectangle 8" width="194.176" height="52.359" fill="none"/>
    </clipPath>
  </defs>
  <g id="Group_7" data-name="Group 7" clip-path="url(#clip-path)">
    <path id="Path_5" data-name="Path 5" d="M446.593,0H435.884a1.135,1.135,0,0,0-1.137,1.133v50.08a1.146,1.146,0,0,0,1.137,1.146H446.6a1.129,1.129,0,0,0,1.136-1.133V1.137A1.145,1.145,0,0,0,446.593,0" transform="translate(-292.592 0)" fill="#002c53"/>
    <path id="Path_6" data-name="Path 6" d="M1.985,0A1.986,1.986,0,1,0,3.97,1.985,1.987,1.987,0,0,0,1.985,0" fill="#cccfd5"/>
    <path id="Path_7" data-name="Path 7" d="M1.985,44.4A1.984,1.984,0,1,0,3.97,46.383,1.983,1.983,0,0,0,1.985,44.4" transform="translate(0 -29.881)" fill="#cccfd5"/>
    <path id="Path_8" data-name="Path 8" d="M1.985,59.195A1.985,1.985,0,1,0,3.97,61.18a1.984,1.984,0,0,0-1.984-1.985" transform="translate(0 -39.839)" fill="#cccfd5"/>
    <path id="Path_9" data-name="Path 9" d="M16.785,14.794a1.987,1.987,0,1,0,1.984,1.988,1.988,1.988,0,0,0-1.984-1.988" transform="translate(-9.961 -9.957)" fill="#cccfd5"/>
    <path id="Path_10" data-name="Path 10" d="M16.785,44.4a1.984,1.984,0,1,0,1.984,1.984A1.984,1.984,0,0,0,16.785,44.4" transform="translate(-9.961 -29.881)" fill="#cccfd5"/>
    <path id="Path_11" data-name="Path 11" d="M16.785,74a1.985,1.985,0,1,0,1.984,1.982A1.986,1.986,0,0,0,16.785,74" transform="translate(-9.961 -49.8)" fill="#7f8899"/>
    <path id="Path_12" data-name="Path 12" d="M16.785,103.6a1.984,1.984,0,1,0,1.984,1.986,1.985,1.985,0,0,0-1.984-1.986" transform="translate(-9.961 -69.721)" fill="#495a76"/>
    <path id="Path_13" data-name="Path 13" d="M16.785,118.387a1.985,1.985,0,1,0,1.984,1.985,1.985,1.985,0,0,0-1.984-1.985" transform="translate(-9.961 -79.676)" fill="#cccfd5"/>
    <path id="Path_14" data-name="Path 14" d="M16.785,147.984a1.984,1.984,0,1,0,1.984,1.984,1.987,1.987,0,0,0-1.984-1.984" transform="translate(-9.961 -99.596)" fill="#495a76"/>
    <path id="Path_15" data-name="Path 15" d="M31.584,0a1.986,1.986,0,1,0,1.984,1.985A1.986,1.986,0,0,0,31.584,0" transform="translate(-19.921)" fill="#cccfd5"/>
    <path id="Path_16" data-name="Path 16" d="M31.584,29.607a1.984,1.984,0,1,0,1.984,1.983,1.982,1.982,0,0,0-1.984-1.983" transform="translate(-19.921 -19.926)" fill="#495a76"/>
    <path id="Path_17" data-name="Path 17" d="M31.584,44.4a1.984,1.984,0,1,0,1.984,1.984A1.983,1.983,0,0,0,31.584,44.4" transform="translate(-19.921 -29.881)" fill="#002c53"/>
    <path id="Path_18" data-name="Path 18" d="M31.584,59.195a1.985,1.985,0,1,0,1.984,1.985,1.983,1.983,0,0,0-1.984-1.985" transform="translate(-19.921 -39.839)" fill="#495a76"/>
    <path id="Path_19" data-name="Path 19" d="M31.584,74a1.985,1.985,0,1,0,1.984,1.982A1.985,1.985,0,0,0,31.584,74" transform="translate(-19.921 -49.8)" fill="#495a76"/>
    <path id="Path_20" data-name="Path 20" d="M31.584,88.786a1.987,1.987,0,1,0,1.984,1.99,1.987,1.987,0,0,0-1.984-1.99" transform="translate(-19.921 -59.754)" fill="#7f8899"/>
    <path id="Path_21" data-name="Path 21" d="M31.584,133.187a1.984,1.984,0,1,0,1.984,1.983,1.981,1.981,0,0,0-1.984-1.983" transform="translate(-19.921 -89.637)" fill="#495a76"/>
    <path id="Path_22" data-name="Path 22" d="M46.381,14.794a1.987,1.987,0,1,0,1.985,1.988,1.988,1.988,0,0,0-1.985-1.988" transform="translate(-29.878 -9.957)" fill="#7f8899"/>
    <path id="Path_23" data-name="Path 23" d="M46.381,29.607a1.984,1.984,0,1,0,1.985,1.983,1.984,1.984,0,0,0-1.985-1.983" transform="translate(-29.878 -19.926)" fill="#495a76"/>
    <path id="Path_24" data-name="Path 24" d="M46.381,44.4a1.984,1.984,0,1,0,1.985,1.984A1.985,1.985,0,0,0,46.381,44.4" transform="translate(-29.878 -29.881)" fill="#7f8899"/>
    <path id="Path_25" data-name="Path 25" d="M46.381,88.786a1.987,1.987,0,1,0,1.985,1.99,1.989,1.989,0,0,0-1.985-1.99" transform="translate(-29.878 -59.754)" fill="#7f8899"/>
    <path id="Path_26" data-name="Path 26" d="M46.381,147.984a1.984,1.984,0,1,0,1.985,1.984,1.987,1.987,0,0,0-1.985-1.984" transform="translate(-29.878 -99.596)" fill="#00325c"/>
    <path id="Path_27" data-name="Path 27" d="M61.18,0a1.986,1.986,0,1,0,1.985,1.985A1.987,1.987,0,0,0,61.18,0" transform="translate(-39.841)" fill="#7f8899"/>
    <path id="Path_28" data-name="Path 28" d="M61.18,14.794a1.987,1.987,0,1,0,1.985,1.988,1.987,1.987,0,0,0-1.985-1.988" transform="translate(-39.841 -9.957)" fill="#7f8899"/>
    <path id="Path_29" data-name="Path 29" d="M61.18,44.4a1.984,1.984,0,1,0,1.985,1.984A1.983,1.983,0,0,0,61.18,44.4" transform="translate(-39.841 -29.881)" fill="#00325c"/>
    <path id="Path_30" data-name="Path 30" d="M61.18,59.195a1.985,1.985,0,1,0,1.985,1.985,1.983,1.983,0,0,0-1.985-1.985" transform="translate(-39.841 -39.839)" fill="#495a76"/>
    <path id="Path_31" data-name="Path 31" d="M61.18,88.786a1.987,1.987,0,1,0,1.985,1.99,1.987,1.987,0,0,0-1.985-1.99" transform="translate(-39.841 -59.754)" fill="#7f8899"/>
    <path id="Path_32" data-name="Path 32" d="M61.18,118.387a1.985,1.985,0,1,0,1.985,1.985,1.984,1.984,0,0,0-1.985-1.985" transform="translate(-39.841 -79.676)" fill="#002c53"/>
    <path id="Path_33" data-name="Path 33" d="M61.18,133.187a1.984,1.984,0,1,0,1.985,1.983,1.982,1.982,0,0,0-1.985-1.983" transform="translate(-39.841 -89.637)" fill="#00325c"/>
    <path id="Path_34" data-name="Path 34" d="M75.973,0a1.986,1.986,0,1,0,1.985,1.985A1.986,1.986,0,0,0,75.973,0" transform="translate(-49.795)" fill="#7f8899"/>
    <path id="Path_35" data-name="Path 35" d="M75.973,29.607a1.984,1.984,0,1,0,1.985,1.983,1.982,1.982,0,0,0-1.985-1.983" transform="translate(-49.795 -19.926)" fill="#495a76"/>
    <path id="Path_36" data-name="Path 36" d="M75.973,59.195a1.985,1.985,0,1,0,1.985,1.985,1.983,1.983,0,0,0-1.985-1.985" transform="translate(-49.795 -39.839)" fill="#00325c"/>
    <path id="Path_37" data-name="Path 37" d="M75.973,74a1.985,1.985,0,1,0,1.985,1.982A1.985,1.985,0,0,0,75.973,74" transform="translate(-49.795 -49.8)" fill="#495a76"/>
    <path id="Path_38" data-name="Path 38" d="M75.973,88.786a1.987,1.987,0,1,0,1.985,1.99,1.987,1.987,0,0,0-1.985-1.99" transform="translate(-49.795 -59.754)" fill="#00325c"/>
    <path id="Path_39" data-name="Path 39" d="M75.973,103.6a1.984,1.984,0,1,0,1.985,1.986,1.984,1.984,0,0,0-1.985-1.986" transform="translate(-49.795 -69.721)" fill="#495a76"/>
    <path id="Path_40" data-name="Path 40" d="M75.973,133.187a1.984,1.984,0,1,0,1.985,1.983,1.982,1.982,0,0,0-1.985-1.983" transform="translate(-49.795 -89.637)" fill="#495a76"/>
    <path id="Path_41" data-name="Path 41" d="M75.973,147.984a1.984,1.984,0,1,0,1.985,1.984,1.986,1.986,0,0,0-1.985-1.984" transform="translate(-49.795 -99.596)" fill="#00325c"/>
    <path id="Path_42" data-name="Path 42" d="M90.772,0a1.986,1.986,0,1,0,1.987,1.985A1.987,1.987,0,0,0,90.772,0" transform="translate(-59.756)" fill="#00325c"/>
    <path id="Path_43" data-name="Path 43" d="M90.772,14.794a1.987,1.987,0,1,0,1.987,1.988,1.987,1.987,0,0,0-1.987-1.988" transform="translate(-59.756 -9.957)" fill="#00325c"/>
    <path id="Path_44" data-name="Path 44" d="M90.772,44.4a1.984,1.984,0,1,0,1.987,1.984A1.984,1.984,0,0,0,90.772,44.4" transform="translate(-59.756 -29.881)" fill="#495a76"/>
    <path id="Path_45" data-name="Path 45" d="M90.772,74a1.985,1.985,0,1,0,1.987,1.982A1.986,1.986,0,0,0,90.772,74" transform="translate(-59.756 -49.8)" fill="#00325c"/>
    <path id="Path_46" data-name="Path 46" d="M90.772,103.6a1.984,1.984,0,1,0,1.987,1.986,1.985,1.985,0,0,0-1.987-1.986" transform="translate(-59.756 -69.721)" fill="#7f8899"/>
    <path id="Path_47" data-name="Path 47" d="M90.772,118.387a1.985,1.985,0,1,0,1.987,1.985,1.985,1.985,0,0,0-1.987-1.985" transform="translate(-59.756 -79.676)" fill="#495a76"/>
    <path id="Path_48" data-name="Path 48" d="M90.772,133.187a1.984,1.984,0,1,0,1.987,1.983,1.983,1.983,0,0,0-1.987-1.983" transform="translate(-59.756 -89.637)" fill="#00325c"/>
    <path id="Path_49" data-name="Path 49" d="M90.772,147.984a1.984,1.984,0,1,0,1.987,1.984,1.986,1.986,0,0,0-1.987-1.984" transform="translate(-59.756 -99.596)" fill="#00325c"/>
    <path id="Path_50" data-name="Path 50" d="M105.577,0a1.986,1.986,0,1,0,1.983,1.985A1.986,1.986,0,0,0,105.577,0" transform="translate(-69.72)" fill="#00325c"/>
    <path id="Path_51" data-name="Path 51" d="M105.577,74a1.985,1.985,0,1,0,1.983,1.982A1.985,1.985,0,0,0,105.577,74" transform="translate(-69.72 -49.8)" fill="#00325c"/>
    <path id="Path_52" data-name="Path 52" d="M105.577,88.786a1.987,1.987,0,1,0,1.983,1.99,1.987,1.987,0,0,0-1.983-1.99" transform="translate(-69.72 -59.754)" fill="#002c53"/>
    <path id="Path_53" data-name="Path 53" d="M105.577,103.6a1.984,1.984,0,1,0,1.983,1.986,1.984,1.984,0,0,0-1.983-1.986" transform="translate(-69.72 -69.721)" fill="#002c53"/>
    <path id="Path_54" data-name="Path 54" d="M105.577,118.387a1.985,1.985,0,1,0,1.983,1.985,1.984,1.984,0,0,0-1.983-1.985" transform="translate(-69.72 -79.676)" fill="#002c53"/>
    <path id="Path_55" data-name="Path 55" d="M105.577,133.187a1.984,1.984,0,1,0,1.983,1.983,1.981,1.981,0,0,0-1.983-1.983" transform="translate(-69.72 -89.637)" fill="#002c53"/>
    <path id="Path_56" data-name="Path 56" d="M105.577,147.984a1.984,1.984,0,1,0,1.983,1.984,1.985,1.985,0,0,0-1.983-1.984" transform="translate(-69.72 -99.596)" fill="#002c53"/>
    <path id="Path_57" data-name="Path 57" d="M120.369,29.607a1.984,1.984,0,1,0,1.987,1.983,1.984,1.984,0,0,0-1.987-1.983" transform="translate(-79.675 -19.926)" fill="#7f8899"/>
    <path id="Path_58" data-name="Path 58" d="M120.369,44.4a1.984,1.984,0,1,0,1.987,1.984,1.984,1.984,0,0,0-1.987-1.984" transform="translate(-79.675 -29.881)" fill="#00325c"/>
    <path id="Path_59" data-name="Path 59" d="M120.369,59.195a1.985,1.985,0,1,0,1.987,1.985,1.985,1.985,0,0,0-1.987-1.985" transform="translate(-79.675 -39.839)" fill="#002c53"/>
    <path id="Path_60" data-name="Path 60" d="M120.369,74a1.985,1.985,0,1,0,1.987,1.982A1.987,1.987,0,0,0,120.369,74" transform="translate(-79.675 -49.8)" fill="#002c53"/>
    <path id="Path_61" data-name="Path 61" d="M120.369,88.786a1.987,1.987,0,1,0,1.987,1.99,1.989,1.989,0,0,0-1.987-1.99" transform="translate(-79.675 -59.754)" fill="#002c53"/>
    <path id="Path_62" data-name="Path 62" d="M120.369,103.6a1.984,1.984,0,1,0,1.987,1.986,1.986,1.986,0,0,0-1.987-1.986" transform="translate(-79.675 -69.721)" fill="#002c53"/>
    <path id="Path_63" data-name="Path 63" d="M120.369,118.387a1.985,1.985,0,1,0,1.987,1.985,1.986,1.986,0,0,0-1.987-1.985" transform="translate(-79.675 -79.676)" fill="#002c53"/>
    <path id="Path_64" data-name="Path 64" d="M120.369,133.187a1.984,1.984,0,1,0,1.987,1.983,1.983,1.983,0,0,0-1.987-1.983" transform="translate(-79.675 -89.637)" fill="#002c53"/>
    <path id="Path_65" data-name="Path 65" d="M120.369,147.984a1.984,1.984,0,1,0,1.987,1.984,1.987,1.987,0,0,0-1.987-1.984" transform="translate(-79.675 -99.596)" fill="#7f8899"/>
    <path id="Path_66" data-name="Path 66" d="M135.169,0a1.986,1.986,0,1,0,1.984,1.985A1.986,1.986,0,0,0,135.169,0" transform="translate(-89.636)" fill="#7f8899"/>
    <path id="Path_67" data-name="Path 67" d="M135.169,14.794a1.987,1.987,0,1,0,1.984,1.988,1.986,1.986,0,0,0-1.984-1.988" transform="translate(-89.636 -9.957)" fill="#00325c"/>
    <path id="Path_68" data-name="Path 68" d="M135.169,29.607a1.984,1.984,0,1,0,1.984,1.983,1.982,1.982,0,0,0-1.984-1.983" transform="translate(-89.636 -19.926)" fill="#002c53"/>
    <path id="Path_69" data-name="Path 69" d="M135.169,44.4a1.984,1.984,0,1,0,1.984,1.984,1.983,1.983,0,0,0-1.984-1.984" transform="translate(-89.636 -29.881)" fill="#002c53"/>
    <path id="Path_70" data-name="Path 70" d="M135.169,59.195a1.985,1.985,0,1,0,1.984,1.985,1.983,1.983,0,0,0-1.984-1.985" transform="translate(-89.636 -39.839)" fill="#002c53"/>
    <path id="Path_71" data-name="Path 71" d="M135.169,74a1.985,1.985,0,1,0,1.984,1.982A1.985,1.985,0,0,0,135.169,74" transform="translate(-89.636 -49.8)" fill="#002c53"/>
    <path id="Path_72" data-name="Path 72" d="M135.169,88.786a1.987,1.987,0,1,0,1.984,1.99,1.987,1.987,0,0,0-1.984-1.99" transform="translate(-89.636 -59.754)" fill="#002c53"/>
    <path id="Path_73" data-name="Path 73" d="M135.169,103.6a1.984,1.984,0,1,0,1.984,1.986,1.984,1.984,0,0,0-1.984-1.986" transform="translate(-89.636 -69.721)" fill="#002c53"/>
    <path id="Path_74" data-name="Path 74" d="M135.169,118.387a1.985,1.985,0,1,0,1.984,1.985,1.984,1.984,0,0,0-1.984-1.985" transform="translate(-89.636 -79.676)" fill="#002c53"/>
    <path id="Path_75" data-name="Path 75" d="M149.963,0a1.986,1.986,0,1,0,1.983,1.985A1.988,1.988,0,0,0,149.963,0" transform="translate(-99.59)" fill="#00325c"/>
    <path id="Path_76" data-name="Path 76" d="M149.963,14.794a1.987,1.987,0,1,0,1.983,1.988,1.988,1.988,0,0,0-1.983-1.988" transform="translate(-99.59 -9.957)" fill="#002c53"/>
    <path id="Path_77" data-name="Path 77" d="M149.963,29.607a1.984,1.984,0,1,0,1.983,1.983,1.984,1.984,0,0,0-1.983-1.983" transform="translate(-99.59 -19.926)" fill="#002c53"/>
    <path id="Path_78" data-name="Path 78" d="M149.963,44.4a1.984,1.984,0,1,0,1.983,1.984,1.984,1.984,0,0,0-1.983-1.984" transform="translate(-99.59 -29.881)" fill="#002c53"/>
    <path id="Path_79" data-name="Path 79" d="M149.963,59.195a1.985,1.985,0,1,0,1.983,1.985,1.984,1.984,0,0,0-1.983-1.985" transform="translate(-99.59 -39.839)" fill="#7f8899"/>
    <path id="Path_80" data-name="Path 80" d="M149.963,103.6a1.984,1.984,0,1,0,1.983,1.986,1.985,1.985,0,0,0-1.983-1.986" transform="translate(-99.59 -69.721)" fill="#002c53"/>
    <path id="Path_81" data-name="Path 81" d="M149.963,118.387a1.985,1.985,0,1,0,1.983,1.985,1.985,1.985,0,0,0-1.983-1.985" transform="translate(-99.59 -79.676)" fill="#002c53"/>
    <path id="Path_82" data-name="Path 82" d="M164.761,103.6a1.984,1.984,0,1,0,1.987,1.986,1.985,1.985,0,0,0-1.987-1.986" transform="translate(-109.552 -69.721)" fill="#002c53"/>
    <path id="Path_83" data-name="Path 83" d="M164.761,118.387a1.985,1.985,0,1,0,1.987,1.985,1.985,1.985,0,0,0-1.987-1.985" transform="translate(-109.552 -79.676)" fill="#002c53"/>
    <path id="Path_84" data-name="Path 84" d="M179.559,103.6a1.984,1.984,0,1,0,1.983,1.986,1.986,1.986,0,0,0-1.983-1.986" transform="translate(-119.509 -69.721)" fill="#002c53"/>
    <path id="Path_85" data-name="Path 85" d="M179.559,118.387a1.985,1.985,0,1,0,1.983,1.985,1.986,1.986,0,0,0-1.983-1.985" transform="translate(-119.509 -79.676)" fill="#002c53"/>
    <path id="Path_86" data-name="Path 86" d="M194.356,118.387a1.985,1.985,0,1,0,1.985,1.985,1.986,1.986,0,0,0-1.985-1.985" transform="translate(-129.469 -79.676)" fill="#002c53"/>
    <path id="Path_87" data-name="Path 87" d="M174.749,2.207A3.962,3.962,0,0,0,170.9.014h-6.136a1.983,1.983,0,0,0-1.984,1.981l.048.438a1.985,1.985,0,0,0,3.873,0l.049.432A1.987,1.987,0,0,1,165.5,4.7a3.524,3.524,0,0,1-.742.143,2.058,2.058,0,0,0-1.984,1.989l.048.434a1.984,1.984,0,0,0,3.873,0l.049.432A1.99,1.99,0,0,1,165.5,9.543a3.326,3.326,0,0,1-.742.147,2.031,2.031,0,0,0-1.984,1.983,1.963,1.963,0,0,0,3.089,1.629l.216.1c.774,1.887,7.283,17.761,8.233,20.077.082.206.02.309-.149.358a2.1,2.1,0,0,0-1.713,2.034,1.984,1.984,0,0,0,3.133,1.616c.169-.121.326-.083.391.045L181.1,50.022a3.247,3.247,0,0,0,3.151,2.346h10.028a1.1,1.1,0,0,0,1.1-1.621c-.155-.385-20.625-48.54-20.625-48.54" transform="translate(-109.552 -0.009)" fill="#002c53"/>
    <path id="Path_88" data-name="Path 88" d="M518.167,50.15c-.916-1.048-21.024-25.193-21.024-25.193S514.8,4.015,515.751,3a3.151,3.151,0,0,0,1.092-1.923c0-.769-.569-1.075-1.324-1.075H505.6a3.409,3.409,0,0,0-3.127,1.372c-1.068,1.183-20.512,24.5-20.512,24.5S501.215,49.227,502.5,50.7c1.247,1.432,1.721,1.662,3.59,1.662h11.231a1.2,1.2,0,0,0,1.222-1.132,1.47,1.47,0,0,0-.379-1.077" transform="translate(-324.37 -0.001)" fill="#002c53"/>
    <path id="Path_89" data-name="Path 89" d="M321.632,42.343l-25,0V1.137A1.143,1.143,0,0,0,295.491,0H281.228a1.133,1.133,0,0,0-1.134,1.133V7.887a1.142,1.142,0,0,0,1.134,1.147h2.417v42.18a1.146,1.146,0,0,0,1.137,1.146h36.849a1.131,1.131,0,0,0,1.138-1.127V43.488a1.148,1.148,0,0,0-1.138-1.145" transform="translate(-188.508 0)" fill="#002c53"/>
  </g>
</svg>
