<svg id="LinkedIn_blue" data-name="LinkedIn blue" xmlns="http://www.w3.org/2000/svg" xmlns:xlink="http://www.w3.org/1999/xlink" width="26" height="26.308" viewBox="0 0 26 26.308">
  <defs>
    <clipPath id="clip-path">
      <rect id="Rectangle_7" data-name="Rectangle 7" width="26" height="26.308" fill="#2a5db4"/>
    </clipPath>
  </defs>
  <g id="Group_5" data-name="Group 5" clip-path="url(#clip-path)">
    <path id="Path_4" data-name="Path 4" d="M23.379,0H2.621A2.625,2.625,0,0,0,0,2.631V23.679a2.625,2.625,0,0,0,2.621,2.63H23.379A2.625,2.625,0,0,0,26,23.679V2.631A2.625,2.625,0,0,0,23.379,0M8.343,20.817h-3.5V9.563h3.5ZM6.571,8.182a1.751,1.751,0,1,1,.046-3.5,1.753,1.753,0,1,1-.046,3.5M21.114,20.817h-3.5V14.58c0-1.45-.506-2.439-1.772-2.439a1.921,1.921,0,0,0-1.795,1.312,2.521,2.521,0,0,0-.115.875v6.49h-3.5V13.153c0-1.4-.046-2.577-.092-3.59h3.038l.161,1.565h.069A4.041,4.041,0,0,1,17.087,9.31c2.3,0,4.027,1.542,4.027,4.856Z" transform="translate(0 -0.001)" fill="#2a5db4"/>
  </g>
</svg>
